# xmcd
#
# Track frame offsets:
#	150
#	14822
#	28990
#	44110
#	59402
#	77177
#	90385
#	104037
#	120010
#	135687
#	146430
#	157885
#	172372
#	186692
#	201822
#
# Disc length: 2871
#
# Revision: 1
# Processed by: cddbd v1.5.1PL0 Copyright (c) Steve Scherf et al.
# Submitted via: EasyCDDAExtractor 5.0.5.1
# Normalized: r0:DSETVAR1
#
DISCID=e10b350f
DTITLE=Various Artist - Chanson On Cinema
DYEAR=1999
DGENRE=Chanson
TTITLE0=Luis Mariano - Maman la plus belle du monde
TTITLE1=Edith Piaf - La vie en rose
TTITLE2=Charles Trenet - La mer
TTITLE3=Enzo Enzo - Les yeux ouverts
TTITLE4=Georges Guetary - Moulin rouge
TTITLE5=Lucienne Boyer - Parlez-moi d'amour
TTITLE6=Cora Vaucaire - Les feuilles mortes
TTITLE7=Enrico Macias - Mon coeur d'attache
TTITLE8=Edith Piaf - Les mots d'amour
TTITLE9=Luis Mariano - Qui sait, qui sait, qui sait
TTITLE10=Charles Trenet - Boum
TTITLE11=Josephine Baker - J'ai deux amour
TTITLE12=Tino Rossi - Petit papa noel
TTITLE13=Lys Gauty - A paris dans chaque faubourg
TTITLE14=Adamo - Tombe la neige
EXTD=
EXTT0=
EXTT1=
EXTT2=
EXTT3=
EXTT4=
EXTT5=
EXTT6=
EXTT7=
EXTT8=
EXTT9=
EXTT10=
EXTT11=
EXTT12=
EXTT13=
EXTT14=
PLAYORDER=
